HIERARCHY
ROOT newVegas:Hips
{
	OFFSET 0.000000 96.479958 0.000000
	CHANNELS 6 Xposition Yposition Zposition Xrotation Yrotation Zrotation
	JOINT newVegas:Pelvis
	{
		OFFSET 0.000000 0.000000 0.000000
		CHANNELS 3 Xrotation Yrotation Zrotation
		JOINT newVegas:LeftUpLeg
		{
			OFFSET 18.735201 -5.666702 -4.541200
			CHANNELS 3 Xrotation Yrotation Zrotation
			JOINT newVegas:LeftLeg
			{
				OFFSET -0.021200 -31.938179 0.493100
				CHANNELS 3 Xrotation Yrotation Zrotation
				JOINT newVegas:LeftFoot
				{
					OFFSET 0.021200 -31.938179 -4.336299
					CHANNELS 3 Xrotation Yrotation Zrotation
					JOINT newVegas:LeftToeBase
					{
						OFFSET 0.943001 -26.722000 15.023500
						CHANNELS 3 Xrotation Yrotation Zrotation
						End Site
						{
							OFFSET 0.000000 30.670183 0.000000
						}
					}
				}
				JOINT newVegas:Left_PantLeg
				{
					OFFSET 0.663870 -9.044666 -1.108900
					CHANNELS 3 Xrotation Yrotation Zrotation
					End Site
					{
						OFFSET 1.415995 20.635357 0.000000
					}
				}
			}
		}
		JOINT newVegas:RightUpLeg
		{
			OFFSET -18.735201 -5.666702 -4.541200
			CHANNELS 3 Xrotation Yrotation Zrotation
			JOINT newVegas:RightLeg
			{
				OFFSET 0.018946 -31.938133 0.493100
				CHANNELS 3 Xrotation Yrotation Zrotation
				JOINT newVegas:RightFoot
				{
					OFFSET -0.018946 -31.938126 -4.336299
					CHANNELS 3 Xrotation Yrotation Zrotation
					JOINT newVegas:RightToeBase
					{
						OFFSET -0.943001 -26.722004 15.023500
						CHANNELS 3 Xrotation Yrotation Zrotation
						End Site
						{
							OFFSET 0.000000 30.670187 0.000000
						}
					}
				}
				JOINT newVegas:Right_PantLeg
				{
					OFFSET -0.661674 -9.044716 -1.108900
					CHANNELS 3 Xrotation Yrotation Zrotation
					End Site
					{
						OFFSET -1.415958 20.635269 0.000000
					}
				}
			}
		}
	}
	JOINT newVegas:Spine
	{
		OFFSET 0.000000 10.199997 -0.299500
		CHANNELS 3 Xrotation Yrotation Zrotation
		JOINT newVegas:Spine1
		{
			OFFSET 0.000000 11.900002 -1.516600
			CHANNELS 3 Xrotation Yrotation Zrotation
			JOINT newVegas:Spine2
			{
				OFFSET 0.000000 13.600006 -2.842500
				CHANNELS 3 Xrotation Yrotation Zrotation
				JOINT newVegas:Neck
				{
					OFFSET 0.000000 9.624100 -2.890100
					CHANNELS 3 Xrotation Yrotation Zrotation
					JOINT newVegas:Head
					{
						OFFSET 0.000000 14.068802 -1.351900
						CHANNELS 3 Xrotation Yrotation Zrotation
						JOINT newVegas:Hair_Back
						{
							OFFSET 0.000000 3.231903 -17.524799
							CHANNELS 3 Xrotation Yrotation Zrotation
							End Site
							{
								OFFSET 0.000000 19.849884 0.000000
							}
						}
						JOINT newVegas:Hair_Front
						{
							OFFSET 0.000000 31.260406 4.573800
							CHANNELS 3 Xrotation Yrotation Zrotation
							JOINT newVegas:Hair_Front1
							{
								OFFSET 0.000000 2.284103 11.993300
								CHANNELS 3 Xrotation Yrotation Zrotation
								JOINT newVegas:Hair_Front2
								{
									OFFSET 0.000000 2.284103 11.993300
									CHANNELS 3 Xrotation Yrotation Zrotation
									End Site
									{
										OFFSET 0.000000 12.208862 0.000000
									}
								}
							}
						}
						JOINT newVegas:Jowel
						{
							OFFSET 0.000000 -7.458206 6.864100
							CHANNELS 3 Xrotation Yrotation Zrotation
							End Site
							{
								OFFSET 0.000000 19.849884 0.000000
							}
						}
					}
				}
				JOINT newVegas:LeftShoulder
				{
					OFFSET 15.263000 10.923401 -0.547700
					CHANNELS 3 Xrotation Yrotation Zrotation
					JOINT newVegas:LeftArm
					{
						OFFSET 25.438599 -2.830597 -13.032500
						CHANNELS 3 Xrotation Yrotation Zrotation
						JOINT newVegas:LeftForeArm
						{
							OFFSET 29.960503 0.000000 0.000000
							CHANNELS 3 Xrotation Yrotation Zrotation
							JOINT newVegas:LeftHand
							{
								OFFSET 27.849251 0.000000 0.000000
								CHANNELS 3 Xrotation Yrotation Zrotation
								JOINT newVegas:LeftHandThumb1
								{
									OFFSET 4.487587 -3.305161 6.305391
									CHANNELS 3 Xrotation Yrotation Zrotation
									JOINT newVegas:LeftHandThumb2
									{
										OFFSET 5.480453 -3.164139 3.164143
										CHANNELS 3 Xrotation Yrotation Zrotation
										JOINT newVegas:LeftHandThumb3
										{
											OFFSET 5.159721 -2.978973 2.978967
											CHANNELS 3 Xrotation Yrotation Zrotation
											End Site
											{
												OFFSET 2.494507 5.926697 1.738678
											}
										}
									}
								}
								JOINT newVegas:LeftHandIndex1
								{
									OFFSET 18.578728 -0.527832 5.208049
									CHANNELS 3 Xrotation Yrotation Zrotation
									JOINT newVegas:LeftHandIndex2
									{
										OFFSET 3.192009 0.000000 0.000000
										CHANNELS 3 Xrotation Yrotation Zrotation
										JOINT newVegas:LeftHandIndex3
										{
											OFFSET 3.835129 0.000000 0.000000
											CHANNELS 3 Xrotation Yrotation Zrotation
											End Site
											{
												OFFSET -0.034599 3.816971 0.371180
											}
										}
									}
								}
								JOINT newVegas:LeftHandMiddle1
								{
									OFFSET 18.476105 0.000000 0.000000
									CHANNELS 3 Xrotation Yrotation Zrotation
									JOINT newVegas:LeftHandMiddle2
									{
										OFFSET 3.324875 0.000000 0.000000
										CHANNELS 3 Xrotation Yrotation Zrotation
										JOINT newVegas:LeftHandMiddle3
										{
											OFFSET 4.596550 0.000000 0.000000
											CHANNELS 3 Xrotation Yrotation Zrotation
											End Site
											{
												OFFSET 0.057701 4.578827 0.399218
											}
										}
									}
								}
								JOINT newVegas:LeftHandRing1
								{
									OFFSET 17.732719 0.121887 -4.201567
									CHANNELS 3 Xrotation Yrotation Zrotation
									JOINT newVegas:LeftHandRing2
									{
										OFFSET 2.733170 0.000000 0.000000
										CHANNELS 3 Xrotation Yrotation Zrotation
										JOINT newVegas:LeftHandRing3
										{
											OFFSET 3.178268 0.000000 0.000000
											CHANNELS 3 Xrotation Yrotation Zrotation
											End Site
											{
												OFFSET 0.119102 3.170624 0.185394
											}
										}
									}
								}
								JOINT newVegas:LeftHandPinky1
								{
									OFFSET 15.989624 -0.606689 -7.535461
									CHANNELS 3 Xrotation Yrotation Zrotation
									JOINT newVegas:LeftHandPinky2
									{
										OFFSET 2.538986 0.000000 0.000000
										CHANNELS 3 Xrotation Yrotation Zrotation
										JOINT newVegas:LeftHandPinky3
										{
											OFFSET 2.593102 0.000000 0.000000
											CHANNELS 3 Xrotation Yrotation Zrotation
											End Site
											{
												OFFSET -0.150902 2.584198 0.152708
											}
										}
									}
								}
							}
							JOINT newVegas:Left_Sleeve
							{
								OFFSET 0.267448 -0.649796 0.577675
								CHANNELS 3 Xrotation Yrotation Zrotation
								End Site
								{
									OFFSET 0.000000 15.991241 0.000000
								}
							}
							JOINT newVegas:Left_CapeC
							{
								OFFSET 15.715958 -8.608795 -6.935905
								CHANNELS 3 Xrotation Yrotation Zrotation
								JOINT newVegas:Left_CapeC1
								{
									OFFSET 0.000000 -8.688499 0.000000
									CHANNELS 3 Xrotation Yrotation Zrotation
									End Site
									{
										OFFSET 0.000000 8.688499 0.000000
									}
								}
							}
						}
						JOINT newVegas:Left_CapeB
						{
							OFFSET 26.118385 -8.608795 -7.079235
							CHANNELS 3 Xrotation Yrotation Zrotation
							JOINT newVegas:Left_CapeB1
							{
								OFFSET 0.000000 -8.688499 0.000000
								CHANNELS 3 Xrotation Yrotation Zrotation
								End Site
								{
									OFFSET 0.000000 8.688499 0.000000
								}
							}
						}
						JOINT newVegas:Left_CapeA
						{
							OFFSET 5.115639 -8.608795 -10.395809
							CHANNELS 3 Xrotation Yrotation Zrotation
							JOINT newVegas:Left_CapeA1
							{
								OFFSET 0.000000 -8.688499 0.000000
								CHANNELS 3 Xrotation Yrotation Zrotation
								End Site
								{
									OFFSET 0.000000 8.688499 0.000000
								}
							}
						}
					}
				}
				JOINT newVegas:RightShoulder
				{
					OFFSET -15.263000 10.923401 -0.547700
					CHANNELS 3 Xrotation Yrotation Zrotation
					JOINT newVegas:RightArm
					{
						OFFSET -25.438599 -2.830597 -13.032500
						CHANNELS 3 Xrotation Yrotation Zrotation
						JOINT newVegas:RightForeArm
						{
							OFFSET -29.960503 0.000000 0.000000
							CHANNELS 3 Xrotation Yrotation Zrotation
							JOINT newVegas:RightHand
							{
								OFFSET -27.849251 0.000000 0.000000
								CHANNELS 3 Xrotation Yrotation Zrotation
								JOINT newVegas:RightHandThumb1
								{
									OFFSET -4.487587 -3.305161 6.305391
									CHANNELS 3 Xrotation Yrotation Zrotation
									JOINT newVegas:RightHandThumb2
									{
										OFFSET -5.480453 -3.164139 3.164143
										CHANNELS 3 Xrotation Yrotation Zrotation
										JOINT newVegas:RightHandThumb3
										{
											OFFSET -5.159721 -2.978973 2.978967
											CHANNELS 3 Xrotation Yrotation Zrotation
											End Site
											{
												OFFSET -2.494507 5.926697 1.738678
											}
										}
									}
								}
								JOINT newVegas:RightHandIndex1
								{
									OFFSET -18.578728 -0.527832 5.208049
									CHANNELS 3 Xrotation Yrotation Zrotation
									JOINT newVegas:RightHandIndex2
									{
										OFFSET -3.192009 0.000000 0.000000
										CHANNELS 3 Xrotation Yrotation Zrotation
										JOINT newVegas:RightHandIndex3
										{
											OFFSET -3.835129 0.000000 0.000000
											CHANNELS 3 Xrotation Yrotation Zrotation
											End Site
											{
												OFFSET 0.034599 3.816971 0.371180
											}
										}
									}
								}
								JOINT newVegas:RightHandMiddle1
								{
									OFFSET -18.476105 0.000000 0.000000
									CHANNELS 3 Xrotation Yrotation Zrotation
									JOINT newVegas:RightHandMiddle2
									{
										OFFSET -3.324875 0.000000 0.000000
										CHANNELS 3 Xrotation Yrotation Zrotation
										JOINT newVegas:RightHandMiddle3
										{
											OFFSET -4.596550 0.000000 0.000000
											CHANNELS 3 Xrotation Yrotation Zrotation
											End Site
											{
												OFFSET -0.057701 4.578827 0.399218
											}
										}
									}
								}
								JOINT newVegas:RightHandRing1
								{
									OFFSET -17.732719 0.121887 -4.201567
									CHANNELS 3 Xrotation Yrotation Zrotation
									JOINT newVegas:RightHandRing2
									{
										OFFSET -2.733170 0.000000 0.000000
										CHANNELS 3 Xrotation Yrotation Zrotation
										JOINT newVegas:RightHandRing3
										{
											OFFSET -3.178268 0.000000 0.000000
											CHANNELS 3 Xrotation Yrotation Zrotation
											End Site
											{
												OFFSET -0.119102 3.170624 0.185394
											}
										}
									}
								}
								JOINT newVegas:RightHandPinky1
								{
									OFFSET -15.989624 -0.606689 -7.535461
									CHANNELS 3 Xrotation Yrotation Zrotation
									JOINT newVegas:RightHandPinky2
									{
										OFFSET -2.538986 0.000000 0.000000
										CHANNELS 3 Xrotation Yrotation Zrotation
										JOINT newVegas:RightHandPinky3
										{
											OFFSET -2.593102 0.000000 0.000000
											CHANNELS 3 Xrotation Yrotation Zrotation
											End Site
											{
												OFFSET 0.150902 2.584198 0.152708
											}
										}
									}
								}
							}
							JOINT newVegas:Right_CapeC
							{
								OFFSET -15.715958 -8.608795 -6.935905
								CHANNELS 3 Xrotation Yrotation Zrotation
								JOINT newVegas:Right_CapeC1
								{
									OFFSET 0.000000 -8.688499 0.000000
									CHANNELS 3 Xrotation Yrotation Zrotation
									End Site
									{
										OFFSET 0.000000 8.688499 0.000000
									}
								}
							}
							JOINT newVegas:Right_Sleeve
							{
								OFFSET -0.267448 -0.649994 0.577675
								CHANNELS 3 Xrotation Yrotation Zrotation
								End Site
								{
									OFFSET 0.000000 15.991302 0.000000
								}
							}
						}
						JOINT newVegas:Right_CapeA
						{
							OFFSET -5.115540 -8.608795 -10.395824
							CHANNELS 3 Xrotation Yrotation Zrotation
							JOINT newVegas:Right_CapeA1
							{
								OFFSET 0.000000 -8.688499 0.000000
								CHANNELS 3 Xrotation Yrotation Zrotation
								End Site
								{
									OFFSET 0.000000 8.688499 0.000000
								}
							}
						}
						JOINT newVegas:Right_CapeB
						{
							OFFSET -26.118187 -8.608795 -7.079266
							CHANNELS 3 Xrotation Yrotation Zrotation
							JOINT newVegas:Right_CapeB1
							{
								OFFSET 0.000000 -8.688499 0.000000
								CHANNELS 3 Xrotation Yrotation Zrotation
								End Site
								{
									OFFSET 0.000000 8.688499 0.000000
								}
							}
						}
					}
				}
				JOINT newVegas:Left_Collar
				{
					OFFSET 18.625099 8.655502 8.828100
					CHANNELS 3 Xrotation Yrotation Zrotation
					JOINT newVegas:Left_Collar1
					{
						OFFSET 14.783401 10.540405 -1.259500
						CHANNELS 3 Xrotation Yrotation Zrotation
						End Site
						{
							OFFSET 0.000000 18.199875 0.000000
						}
					}
				}
				JOINT newVegas:Collar_Back
				{
					OFFSET 0.000000 15.630707 -20.132601
					CHANNELS 3 Xrotation Yrotation Zrotation
					End Site
					{
						OFFSET 0.000000 22.523010 0.000000
					}
				}
				JOINT newVegas:Left_Peck
				{
					OFFSET 17.239599 -5.132599 25.482599
					CHANNELS 3 Xrotation Yrotation Zrotation
					End Site
					{
						OFFSET 0.000000 22.523010 0.000000
					}
				}
				JOINT newVegas:Right_Peck
				{
					OFFSET -17.239599 -5.132202 25.482599
					CHANNELS 3 Xrotation Yrotation Zrotation
					End Site
					{
						OFFSET 0.000000 22.523010 0.000000
					}
				}
				JOINT newVegas:Right_Collar
				{
					OFFSET -18.625099 8.655792 8.828100
					CHANNELS 3 Xrotation Yrotation Zrotation
					JOINT newVegas:Right_Collar1
					{
						OFFSET -14.783401 10.539993 -1.259500
						CHANNELS 3 Xrotation Yrotation Zrotation
						End Site
						{
							OFFSET 0.000000 18.199631 0.000000
						}
					}
				}
			}
		}
		JOINT newVegas:Belly
		{
			OFFSET 0.000000 -6.540398 9.014299
			CHANNELS 3 Xrotation Yrotation Zrotation
			End Site
			{
				OFFSET 0.000000 11.566666 0.000000
			}
		}
	}
	JOINT newVegas:ElvisFacialAnim_Joint
	{
		OFFSET 1.000000 -95.330101 -8.825800
		CHANNELS 3 Xrotation Yrotation Zrotation
		End Site
		{
			OFFSET 0.000000 35.315800 0.000000
		}
	}
}
MOTION
Frames: 4
Frame Time: 0.033333
-1.464033 88.083176 16.713284 6.301451 3.225758 -1.863355 0.000000 -0.000000 0.000000 -15.203385 2.092734 3.308966 48.366373 -4.374349 -8.067280 -28.032514 -0.070610 7.925139 0.000000 0.000000 0.000000 -0.000004 0.000001 0.000000 -40.979711 10.252500 -2.849607 71.807869 -0.769982 1.999766 19.335837 3.935426 16.598825 -0.000004 -0.000000 0.000000 0.000004 0.000001 -0.000001 4.171857 1.627789 1.150057 11.025828 -0.630334 -0.254996 11.023449 -0.664402 -0.142240 -0.000000 0.000001 -0.000001 -0.000005 0.000001 -0.000000 -0.000000 -0.000000 -0.000000 0.000092 0.000000 0.000000 0.000015 -0.000002 -0.000000 -0.000002 0.000000 -0.000000 -0.000000 -0.000000 -0.000000 1.253056 4.822505 -15.195719 -10.036526 -15.825813 -59.312898 -0.000005 -59.720223 -0.000016 -7.146904 -2.189481 0.938642 -1.486891 -0.157495 6.304598 20.232653 29.714024 -1.736398 -0.000000 -0.000002 -0.000003 4.573989 8.226504 -62.811294 7.157110 5.703927 -102.919531 -0.000002 0.000000 0.000003 9.037027 8.498471 -84.962062 7.156238 5.704108 -102.910932 -0.000002 -0.000002 -0.000002 9.037025 8.498452 -84.962055 7.156245 5.704099 -102.910945 0.000001 0.000001 0.000001 9.036730 8.502166 -84.962007 7.156232 5.704104 -102.910945 0.000002 0.000000 -0.000002 0.000000 0.000004 -0.000002 0.000000 0.000004 -0.000002 -0.000000 0.000004 -0.000001 0.000000 0.000003 0.000001 0.000001 0.000003 0.000001 0.000000 0.000003 0.000001 0.000000 0.000003 0.000001 0.903291 -7.263734 15.354052 12.218361 9.388574 55.752946 -0.000006 63.340955 0.000015 -6.383717 5.473564 -1.200264 -2.330954 2.177018 -5.555450 20.566256 -29.826917 2.652278 0.000000 0.000000 0.000001 2.972713 -6.626968 62.106302 5.695195 -4.540256 102.892422 -0.000002 -0.000002 0.000001 6.663871 -7.155804 84.173715 5.694987 -4.540285 102.890058 -0.000005 0.000001 0.000002 6.663871 -7.155790 84.173708 5.695011 -4.540272 102.890058 -0.000000 -0.000001 -0.000001 6.663892 -7.155848 84.173708 5.694993 -4.540271 102.890052 0.000002 -0.000000 0.000000 0.000003 0.000001 0.000001 -0.000001 0.000001 0.000001 0.000003 0.000001 0.000000 0.000000 -0.000002 -0.000002 0.000000 -0.000001 -0.000000 0.000000 -0.000002 -0.000002 0.000000 -0.000001 -0.000000 -0.000000 0.000000 -0.000000 -0.000000 0.000000 -0.000000 -0.000000 0.000000 -0.000000 -0.000000 0.000000 -0.000000 -0.000000 0.000000 -0.000000 -0.000000 0.000000 -0.000000 -0.000000 0.000000 -0.000000 0.000001 0.000000 -0.000000 0.000000 -0.000000 0.000000 
-0.400289 92.355621 26.891710 5.324875 4.465181 -5.450093 -0.000000 -0.000000 0.000000 -2.972484 7.310659 10.668841 34.883753 -4.677797 -5.816545 -16.772923 -5.574603 1.422434 -0.000002 0.000000 0.000000 -0.000002 0.000000 0.000000 -40.650749 10.981407 0.537658 68.571698 -2.188374 1.870316 4.090737 6.177543 25.583775 -0.000001 0.000000 0.000000 0.000001 -0.000000 0.000000 4.484183 -0.793570 3.176573 11.047984 -1.280012 1.652541 11.037632 -1.308539 1.716475 -0.050497 0.083445 0.008236 -0.050497 0.083445 0.008236 -0.000000 0.000000 0.000000 -0.050423 0.083445 0.008236 -0.050567 0.083445 0.008236 -0.000002 -0.000000 -0.000000 -0.000000 0.000000 0.000000 0.949752 4.507050 -13.621868 -5.482374 -19.790475 -60.794025 0.000015 -67.377767 0.000016 -6.151228 -7.848300 -3.160526 -1.928442 -1.758822 5.769086 19.824919 28.020544 -1.762325 0.000003 -0.000001 0.000000 3.475067 7.678359 -61.108145 6.368288 5.828232 -95.080372 0.000002 0.000000 0.000001 7.238449 8.489876 -80.745171 6.421893 5.823232 -95.608476 -0.000003 -0.000001 -0.000001 7.238451 8.489854 -80.745164 6.421913 5.823223 -95.608476 -0.000002 -0.000001 -0.000001 7.237864 8.493541 -80.745096 6.421873 5.823214 -95.608462 0.000003 -0.000007 -0.000002 0.000001 -0.000001 0.000001 0.000001 -0.000001 0.000001 -0.000000 -0.000001 0.000002 0.000002 -0.000001 -0.000000 0.000002 -0.000001 -0.000001 0.000002 -0.000001 -0.000000 0.000002 -0.000002 -0.000000 0.976956 -5.523250 16.160298 14.774602 8.529759 53.783594 -0.000002 67.266053 0.000007 -4.947574 3.525719 -4.557478 -2.330945 2.177012 -5.555466 18.552496 -26.543870 -1.261308 0.000001 0.000001 0.000001 2.474398 -6.364671 60.710082 5.012887 -4.643601 94.385428 -0.000002 0.000002 -0.000000 6.134715 -7.273626 79.522369 5.212252 -4.624025 96.852834 -0.000001 -0.000003 0.000001 6.134708 -7.273613 79.522369 5.212265 -4.624027 96.852834 0.000001 0.000001 -0.000001 6.134729 -7.273665 79.522342 5.212242 -4.624017 96.852827 -0.000000 -0.000000 0.000000 -0.000002 0.000002 -0.000001 -0.000002 0.000002 -0.000000 -0.000002 0.000002 -0.000001 -0.000000 0.000003 -0.000000 -0.000000 0.000003 -0.000000 -0.000000 0.000003 -0.000000 -0.000000 0.000003 -0.000001 -0.000001 0.000000 0.000000 -0.000001 0.000000 0.000000 -0.000001 0.000000 0.000000 -0.000001 0.000000 0.000000 -0.000001 0.000000 0.000000 -0.000001 0.000000 0.000000 -0.000001 0.000000 0.000000 -0.000000 -0.000000 -0.000000 -0.000000 -0.000000 0.000000 
0.801826 95.706406 38.527897 5.022329 7.754244 -7.287402 -0.000000 -0.000001 0.000000 -0.796716 14.131427 15.942804 28.774600 -4.517394 -3.989973 4.441351 -10.284165 0.535350 0.000004 0.000001 0.000000 0.000001 0.000002 -0.000001 -42.063208 9.157253 1.532995 66.816858 -2.826720 1.782297 -5.626141 11.843457 31.475226 -0.000001 -0.000002 -0.000001 0.000003 0.000000 -0.000001 4.791599 -3.298618 3.978516 10.483913 -2.886045 2.824306 10.484054 -2.942226 2.791650 -0.192618 0.139350 -0.140494 -0.192635 0.139352 -0.140494 0.000002 0.000000 -0.000000 -0.192547 0.139350 -0.140494 -0.192617 0.139356 -0.140495 0.000001 -0.000000 -0.000000 0.000002 0.000000 -0.000000 1.021033 0.404112 -14.887712 5.635979 -18.201223 -58.443272 -0.000005 -84.651445 -0.000018 7.241073 -7.896191 -0.244929 -2.445826 -3.576640 5.143112 19.229392 26.139884 -1.348299 0.000002 0.000000 0.000001 0.865819 6.014011 -56.214929 4.323075 5.648697 -74.836757 0.000004 0.000000 -0.000000 2.956450 7.495125 -69.605672 4.539592 5.702676 -77.025860 -0.000004 -0.000001 0.000000 2.956450 7.495122 -69.605679 4.539616 5.702679 -77.025860 -0.000002 0.000003 0.000001 2.955178 7.498609 -69.605508 4.539586 5.702653 -77.025853 0.000002 0.000000 0.000001 -0.000001 0.000002 -0.000002 -0.000001 0.000002 -0.000002 -0.000002 0.000003 -0.000001 -0.000002 -0.000003 -0.000000 -0.000002 -0.000003 -0.000001 -0.000002 -0.000003 -0.000000 -0.000001 -0.000002 -0.000001 0.703861 -1.984822 15.169212 17.857441 8.618874 52.656076 0.000021 75.754106 -0.000035 1.871130 2.484979 -7.473486 -2.330953 2.177030 -5.555438 13.336507 -18.985397 -7.907471 0.000001 -0.000002 -0.000002 2.042042 -6.139880 62.332129 3.302894 -4.456326 73.076897 -0.000002 0.000000 -0.000001 5.132577 -7.299299 72.225651 3.985725 -4.608609 81.701514 0.000001 0.000000 0.000003 5.132575 -7.299287 72.225651 3.985747 -4.608605 81.701528 0.000002 0.000001 -0.000000 5.132595 -7.299335 72.225644 3.985736 -4.608596 81.701534 0.000004 0.000003 0.000006 -0.000000 0.000001 -0.000001 0.000001 -0.000001 0.000000 -0.000000 0.000001 -0.000001 -0.000001 0.000001 -0.000001 -0.000001 0.000002 0.000001 -0.000001 0.000001 -0.000001 -0.000001 0.000002 -0.000000 -0.000001 0.000000 -0.000000 -0.000001 0.000000 -0.000000 -0.000001 0.000000 -0.000000 -0.000001 0.000000 -0.000000 -0.000001 0.000000 -0.000000 -0.000001 0.000000 -0.000000 -0.000001 0.000000 -0.000000 -0.000001 -0.000000 0.000000 -0.000000 -0.000001 0.000000 
2.927299 96.934143 50.080280 5.467098 13.167453 -6.043338 0.000000 -0.000001 0.000000 0.851271 12.719485 15.885101 24.578929 -4.325051 -4.964390 32.935831 -4.508214 1.790672 0.000001 0.000000 0.000000 0.000000 0.000002 0.000000 -48.250673 5.416849 -2.005402 72.005425 -2.524517 1.920848 -5.862432 24.735117 29.734856 0.000003 -0.000001 -0.000002 0.000001 -0.000000 -0.000000 5.183276 -6.075403 4.543715 9.607497 -5.228053 1.656902 9.609660 -5.285970 1.496744 -0.379209 0.153090 -0.293582 -0.379214 0.153090 -0.293582 0.000002 -0.000000 -0.000000 -0.379143 0.153091 -0.293582 -0.379210 0.153094 -0.293583 -0.000000 -0.000000 0.000000 0.000002 -0.000000 -0.000000 0.801755 -4.080741 -16.490074 18.785477 -14.914541 -52.674439 0.000180 -104.757432 0.000181 23.499478 -6.572911 7.339866 -3.010348 -5.489123 4.462408 18.604517 24.163089 -0.759731 0.000003 -0.000002 -0.000005 -1.623593 3.928743 -52.389388 2.189520 4.566913 -51.211372 -0.000003 -0.000000 -0.000002 -1.144188 4.838774 -57.874645 2.547537 4.831893 -55.578643 -0.000001 0.000001 -0.000001 -1.144183 4.838766 -57.874645 2.547546 4.831897 -55.578636 -0.000003 -0.000001 -0.000001 -1.146143 4.841914 -57.874488 2.547533 4.831894 -55.578653 -0.000000 -0.000003 -0.000002 -0.000000 0.000001 0.000001 -0.000000 0.000001 0.000001 -0.000000 0.000001 0.000002 -0.000000 0.000001 -0.000000 -0.000000 -0.000000 -0.000002 -0.000000 0.000001 -0.000000 -0.000002 0.000000 -0.000001 0.665084 1.466738 16.048923 21.599696 7.331603 48.034706 0.000042 88.746588 -0.000117 4.561234 0.697248 -8.031895 -2.330947 2.177038 -5.555429 -3.700047 -10.158545 -13.190233 0.000000 -0.000005 -0.000001 1.372389 -5.890408 65.888595 1.573269 -3.491487 48.501747 0.000000 0.000000 -0.000001 4.613946 -7.227128 68.935679 2.697576 -4.225642 65.092741 0.000002 -0.000003 0.000001 4.613948 -7.227115 68.935692 2.697579 -4.225646 65.092734 0.000001 -0.000001 -0.000002 4.613959 -7.227170 68.935685 2.697558 -4.225638 65.092727 -0.000005 0.000003 -0.000001 -0.000000 0.000003 0.000001 -0.000001 0.000002 0.000000 -0.000000 0.000003 -0.000000 0.000000 -0.000003 0.000002 0.000000 -0.000002 0.000002 0.000000 -0.000003 0.000002 0.000000 -0.000002 0.000001 -0.000002 0.000000 0.000000 -0.000002 0.000000 0.000000 -0.000002 0.000000 0.000000 -0.000002 0.000000 0.000000 -0.000002 0.000000 0.000000 -0.000002 0.000000 0.000000 -0.000002 0.000000 0.000000 0.000000 -0.000000 -0.000000 0.000000 -0.000001 0.000000 
